<svg width="520" height="320" xmlns="http://www.w3.org/2000/svg">
 <g>
  <rect id="svg_16" height="40" width="40" y="120" x="200" stroke-opacity="null" stroke-width="0" stroke="#000" fill="#ffffff"/>
  <rect id="svg_17" height="40" width="40" y="80" x="200" stroke-opacity="null" stroke-width="0" stroke="#000" fill="#ffffff"/>
  <rect id="svg_18" height="40" width="40" y="40" x="200" stroke-opacity="null" stroke-width="0" stroke="#000" fill="#ffffff"/>
  <rect id="svg_25" height="40" width="40" y="120" x="160" stroke-opacity="null" stroke-width="0" stroke="#000" fill="#ffffff"/>
  <rect id="svg_32" height="40" width="40" y="120" x="160" stroke-opacity="null" stroke-width="0" stroke="#000" fill="#ffffff"/>
  <rect id="svg_63" height="40" width="40" y="120" x="120" stroke-opacity="null" stroke-width="0" stroke="#000" fill="#ffffff"/>
  <rect id="svg_67" height="40" width="40" y="120" x="80" stroke-opacity="null" stroke-width="0" stroke="#000" fill="#ffffff"/>
  <rect id="svg_69" height="40" width="40" y="120" x="40" stroke-opacity="null" stroke-width="0" stroke="#000" fill="#ffffff"/>
  <rect id="svg_74" height="40" width="40" y="120" x="240" stroke-opacity="null" stroke-width="0" stroke="#000" fill="#ffffff"/>
  <rect id="svg_75" height="40" width="40" y="80" x="240" stroke-opacity="null" stroke-width="0" stroke="#000" fill="#ffffff"/>
  <rect id="svg_76" height="40" width="40" y="40" x="240" stroke-opacity="null" stroke-width="0" stroke="#000" fill="#ffffff"/>
  <rect id="svg_77" height="40" width="40" y="0" x="240" stroke-opacity="null" stroke-width="0" stroke="#000" fill="#ffffff"/>
  <rect id="svg_113" height="40" width="40" y="120" x="280" stroke-opacity="null" stroke-width="0" stroke="#000" fill="#ffffff"/>
  <rect id="svg_114" height="40" width="40" y="80" x="280" stroke-opacity="null" stroke-width="0" stroke="#000" fill="#ffffff"/>
  <rect id="svg_115" height="40" width="40" y="40" x="280" stroke-opacity="null" stroke-width="0" stroke="#000" fill="#ffffff"/>
  <rect id="svg_123" height="40" width="40" y="120" x="320" stroke-opacity="null" stroke-width="0" stroke="#000" fill="#ffffff"/>
  <rect id="svg_132" height="40" width="40" y="120" x="360" stroke-opacity="null" stroke-width="0" stroke="#000" fill="#ffffff"/>
  <rect id="svg_140" height="40" width="40" y="120" x="400" stroke-opacity="null" stroke-width="0" stroke="#000" fill="#ffffff"/>
  <rect id="svg_150" height="40" width="40" y="120" x="440" stroke-opacity="null" stroke-width="0" stroke="#000" fill="#ffffff"/>
  <rect id="svg_170" height="40" width="40" y="240" x="200" stroke-opacity="null" stroke-width="0" stroke="#000" fill="#ffffff"/>
  <rect id="svg_171" height="40" width="40" y="200" x="200" stroke-opacity="null" stroke-width="0" stroke="#000" fill="#ffffff"/>
  <rect id="svg_172" height="40" width="40" y="160" x="200" stroke-opacity="null" stroke-width="0" stroke="#000" fill="#ffffff"/>
  <rect id="svg_173" height="40" width="40" y="240" x="160" stroke-opacity="null" stroke-width="0" stroke="#000" fill="#ffffff"/>
  <rect id="svg_174" height="40" width="40" y="200" x="160" stroke-opacity="null" stroke-width="0" stroke="#000" fill="#ffffff"/>
  <rect id="svg_175" height="40" width="40" y="160" x="160" stroke-opacity="null" stroke-width="0" stroke="#000" fill="#ffffff"/>
  <rect id="svg_176" height="40" width="40" y="240" x="160" stroke-opacity="null" stroke-width="0" stroke="#000" fill="#ffffff"/>
  <rect id="svg_177" height="40" width="40" y="200" x="160" stroke-opacity="null" stroke-width="0" stroke="#000" fill="#ffffff"/>
  <rect id="svg_178" height="40" width="40" y="160" x="160" stroke-opacity="null" stroke-width="0" stroke="#000" fill="#ffffff"/>
  <rect id="svg_179" height="40" width="40" y="240" x="120" stroke-opacity="null" stroke-width="0" stroke="#000" fill="#ffffff"/>
  <rect id="svg_180" height="40" width="40" y="200" x="120" stroke-opacity="null" stroke-width="0" stroke="#000" fill="#ffffff"/>
  <rect id="svg_181" height="40" width="40" y="160" x="120" stroke-opacity="null" stroke-width="0" stroke="#000" fill="#ffffff"/>
  <rect id="svg_182" height="40" width="40" y="240" x="240" stroke-opacity="null" stroke-width="0" stroke="#000" fill="#ffffff"/>
  <rect id="svg_183" height="40" width="40" y="200" x="240" stroke-opacity="null" stroke-width="0" stroke="#000" fill="#ffffff"/>
  <rect id="svg_184" height="40" width="40" y="160" x="240" stroke-opacity="null" stroke-width="0" stroke="#000" fill="#ffffff"/>
  <rect id="svg_185" height="40" width="40" y="240" x="280" stroke-opacity="null" stroke-width="0" stroke="#000" fill="#ffffff"/>
  <rect id="svg_186" height="40" width="40" y="200" x="280" stroke-opacity="null" stroke-width="0" stroke="#000" fill="#ffffff"/>
  <rect id="svg_187" height="40" width="40" y="160" x="280" stroke-opacity="null" stroke-width="0" stroke="#000" fill="#ffffff"/>
  <rect id="svg_188" height="40" width="40" y="240" x="320" stroke-opacity="null" stroke-width="0" stroke="#000" fill="#ffffff"/>
  <rect id="svg_189" height="40" width="40" y="200" x="320" stroke-opacity="null" stroke-width="0" stroke="#000" fill="#ffffff"/>
  <rect id="svg_190" height="40" width="40" y="160" x="320" stroke-opacity="null" stroke-width="0" stroke="#000" fill="#ffffff"/>
  <rect id="svg_191" height="40" width="40" y="240" x="360" stroke-opacity="null" stroke-width="0" stroke="#000" fill="#ffffff"/>
  <rect id="svg_192" height="40" width="40" y="200" x="360" stroke-opacity="null" stroke-width="0" stroke="#000" fill="#ffffff"/>
  <rect id="svg_193" height="40" width="40" y="160" x="360" stroke-opacity="null" stroke-width="0" stroke="#000" fill="#ffffff"/>
  <rect id="svg_194" height="40" width="40" y="240" x="400" stroke-opacity="null" stroke-width="0" stroke="#000" fill="#ffffff"/>
  <rect id="svg_195" height="40" width="40" y="200" x="400" stroke-opacity="null" stroke-width="0" stroke="#000" fill="#ffffff"/>
  <rect id="svg_196" height="40" width="40" y="160" x="400" stroke-opacity="null" stroke-width="0" stroke="#000" fill="#ffffff"/>
  <rect id="svg_197" height="40" width="40" y="240" x="440" stroke-opacity="null" stroke-width="0" stroke="#000" fill="#ffffff"/>
  <rect id="svg_198" height="40" width="40" y="200" x="440" stroke-opacity="null" stroke-width="0" stroke="#000" fill="#ffffff"/>
  <rect id="svg_199" height="40" width="40" y="160" x="440" stroke-opacity="null" stroke-width="0" stroke="#000" fill="#ffffff"/>
  <rect id="svg_200" height="40" width="40" y="240" x="480" stroke-opacity="null" stroke-width="0" stroke="#000" fill="#ffffff"/>
  <rect id="svg_201" height="40" width="40" y="200" x="480" stroke-opacity="null" stroke-width="0" stroke="#000" fill="#ffffff"/>
  <rect id="svg_202" height="40" width="40" y="160" x="480" stroke-opacity="null" stroke-width="0" stroke="#000" fill="#ffffff"/>
  <rect id="svg_230" height="40" width="40" y="240" x="80" stroke-opacity="null" stroke-width="0" stroke="#000" fill="#ffffff"/>
  <rect id="svg_231" height="40" width="40" y="200" x="80" stroke-opacity="null" stroke-width="0" stroke="#000" fill="#ffffff"/>
  <rect id="svg_232" height="40" width="40" y="160" x="80" stroke-opacity="null" stroke-width="0" stroke="#000" fill="#ffffff"/>
  <rect id="svg_233" height="40" width="40" y="240" x="40" stroke-opacity="null" stroke-width="0" stroke="#000" fill="#ffffff"/>
  <rect id="svg_234" height="40" width="40" y="200" x="40" stroke-opacity="null" stroke-width="0" stroke="#000" fill="#ffffff"/>
  <rect id="svg_235" height="40" width="40" y="160" x="40" stroke-opacity="null" stroke-width="0" stroke="#000" fill="#ffffff"/>
  <rect id="svg_236" height="40" width="40" y="240" x="40" stroke-opacity="null" stroke-width="0" stroke="#000" fill="#ffffff"/>
  <rect id="svg_237" height="40" width="40" y="200" x="40" stroke-opacity="null" stroke-width="0" stroke="#000" fill="#ffffff"/>
  <rect id="svg_238" height="40" width="40" y="160" x="40" stroke-opacity="null" stroke-width="0" stroke="#000" fill="#ffffff"/>
  <rect id="svg_239" height="40" width="40" y="240" x="0" stroke-opacity="null" stroke-width="0" stroke="#000" fill="#ffffff"/>
  <rect id="svg_240" height="40" width="40" y="200" x="0" stroke-opacity="null" stroke-width="0" stroke="#000" fill="#ffffff"/>
  <rect id="svg_241" height="40" width="40" y="160" x="0" stroke-opacity="null" stroke-width="0" stroke="#000" fill="#ffffff"/>
  <rect id="svg_265" height="40" width="40" y="280" x="200" stroke-opacity="null" stroke-width="0" stroke="#000" fill="#ffffff"/>
  <rect id="svg_266" height="40" width="40" y="280" x="160" stroke-opacity="null" stroke-width="0" stroke="#000" fill="#ffffff"/>
  <rect id="svg_267" height="40" width="40" y="280" x="160" stroke-opacity="null" stroke-width="0" stroke="#000" fill="#ffffff"/>
  <rect id="svg_268" height="40" width="40" y="280" x="120" stroke-opacity="null" stroke-width="0" stroke="#000" fill="#ffffff"/>
  <rect id="svg_269" height="40" width="40" y="280" x="240" stroke-opacity="null" stroke-width="0" stroke="#000" fill="#ffffff"/>
  <rect id="svg_270" height="40" width="40" y="280" x="280" stroke-opacity="null" stroke-width="0" stroke="#000" fill="#ffffff"/>
  <rect id="svg_271" height="40" width="40" y="280" x="320" stroke-opacity="null" stroke-width="0" stroke="#000" fill="#ffffff"/>
  <rect id="svg_272" height="40" width="40" y="280" x="360" stroke-opacity="null" stroke-width="0" stroke="#000" fill="#ffffff"/>
  <rect id="svg_273" height="40" width="40" y="280" x="400" stroke-opacity="null" stroke-width="0" stroke="#000" fill="#ffffff"/>
  <rect id="svg_274" height="40" width="40" y="280" x="440" stroke-opacity="null" stroke-width="0" stroke="#000" fill="#ffffff"/>
  <rect id="svg_275" height="40" width="40" y="280" x="480" stroke-opacity="null" stroke-width="0" stroke="#000" fill="#ffffff"/>
  <rect id="svg_276" height="40" width="40" y="280" x="80" stroke-opacity="null" stroke-width="0" stroke="#000" fill="#ffffff"/>
  <rect id="svg_277" height="40" width="40" y="280" x="40" stroke-opacity="null" stroke-width="0" stroke="#000" fill="#ffffff"/>
  <rect id="svg_278" height="40" width="40" y="280" x="40" stroke-opacity="null" stroke-width="0" stroke="#000" fill="#ffffff"/>
  <rect id="svg_279" height="40" width="40" y="280" x="0" stroke-opacity="null" stroke-width="0" stroke="#000" fill="#ffffff"/>
 </g>
</svg>