<svg width="680" height="440" xmlns="http://www.w3.org/2000/svg">
 <g>
  <title>Layer 1</title>
  <rect y="20" fill="#007f3f" stroke="#000" stroke-width="0" stroke-opacity="null" x="200" width="40" height="20" id="svg_1"/>
  <rect fill="#007f3f" stroke="#000" stroke-width="0" stroke-opacity="null" x="160" y="40" width="40" height="40" id="svg_2"/>
  <rect fill="#007f3f" stroke="#000" stroke-width="0" stroke-opacity="null" x="120" y="80" width="40" height="40" id="svg_3"/>
  <rect fill="#007f3f" stroke="#000" stroke-width="0" stroke-opacity="null" x="80" y="120" width="40" height="40" id="svg_4"/>
  <rect fill="#007f3f" stroke="#000" stroke-width="0" stroke-opacity="null" x="40" y="160" width="40" height="40" id="svg_5"/>
  <rect fill="#007f3f" stroke="#000" stroke-width="0" stroke-opacity="null" x="0" y="200" width="40" height="40" id="svg_6"/>
  <rect fill="#007f3f" stroke="#000" stroke-width="0" stroke-opacity="null" x="40" y="240" width="40" height="40" id="svg_7"/>
  <rect fill="#007f3f" stroke="#000" stroke-width="0" stroke-opacity="null" x="80" y="280" width="40" height="40" id="svg_8"/>
  <rect fill="#007f3f" stroke="#000" stroke-width="0" stroke-opacity="null" x="120" y="320" width="40" height="40" id="svg_9"/>
  <rect fill="#007f3f" stroke="#000" stroke-width="0" stroke-opacity="null" x="160" y="360" width="40" height="40" id="svg_10"/>
  <rect fill="#007f3f" stroke="#000" stroke-width="0" stroke-opacity="null" x="200" y="400" width="40" height="20" id="svg_11"/>
  <rect fill="#00bf00" stroke="#000" stroke-width="0" stroke-opacity="null" x="200" y="360" width="40" height="40" id="svg_12"/>
  <rect fill="#00bf00" stroke="#000" stroke-width="0" stroke-opacity="null" x="200" y="320" width="40" height="40" id="svg_13"/>
  <rect fill="#00bf00" stroke="#000" stroke-width="0" stroke-opacity="null" x="200" y="280" width="40" height="40" id="svg_14"/>
  <rect fill="#00bf00" stroke="#000" stroke-width="0" stroke-opacity="null" x="200" y="240" width="40" height="40" id="svg_15"/>
  <rect fill="#00bf00" stroke="#000" stroke-width="0" stroke-opacity="null" x="200" y="200" width="40" height="40" id="svg_16"/>
  <rect fill="#00bf00" stroke="#000" stroke-width="0" stroke-opacity="null" x="200" y="160" width="40" height="40" id="svg_17"/>
  <rect fill="#00bf00" stroke="#000" stroke-width="0" stroke-opacity="null" x="200" y="120" width="40" height="40" id="svg_18"/>
  <rect fill="#00bf00" stroke="#000" stroke-width="0" stroke-opacity="null" x="200" y="80" width="40" height="40" id="svg_19"/>
  <rect fill="#00bf00" stroke="#000" stroke-width="0" stroke-opacity="null" x="200" y="40" width="40" height="40" id="svg_20"/>
  <rect fill="#00bf00" stroke="#000" stroke-width="0" stroke-opacity="null" x="240" y="40" width="40" height="40" id="svg_21"/>
  <rect fill="#00bf00" stroke="#000" stroke-width="0" stroke-opacity="null" x="160" y="320" width="40" height="40" id="svg_22"/>
  <rect fill="#00bf00" stroke="#000" stroke-width="0" stroke-opacity="null" x="160" y="280" width="40" height="40" id="svg_23"/>
  <rect fill="#00bf00" stroke="#000" stroke-width="0" stroke-opacity="null" x="160" y="240" width="40" height="40" id="svg_24"/>
  <rect fill="#00bf00" stroke="#000" stroke-width="0" stroke-opacity="null" x="160" y="200" width="40" height="40" id="svg_25"/>
  <rect fill="#00bf00" stroke="#000" stroke-width="0" stroke-opacity="null" x="160" y="160" width="40" height="40" id="svg_26"/>
  <rect fill="#00bf00" stroke="#000" stroke-width="0" stroke-opacity="null" x="160" y="120" width="40" height="40" id="svg_27"/>
  <rect fill="#00bf00" stroke="#000" stroke-width="0" stroke-opacity="null" x="160" y="80" width="40" height="40" id="svg_28"/>
  <rect fill="#00bf00" stroke="#000" stroke-width="0" stroke-opacity="null" x="160" y="320" width="40" height="40" id="svg_29"/>
  <rect fill="#00bf00" stroke="#000" stroke-width="0" stroke-opacity="null" x="160" y="280" width="40" height="40" id="svg_30"/>
  <rect fill="#00bf00" stroke="#000" stroke-width="0" stroke-opacity="null" x="160" y="240" width="40" height="40" id="svg_31"/>
  <rect fill="#00bf00" stroke="#000" stroke-width="0" stroke-opacity="null" x="160" y="200" width="40" height="40" id="svg_32"/>
  <rect fill="#00bf00" stroke="#000" stroke-width="0" stroke-opacity="null" x="160" y="160" width="40" height="40" id="svg_33"/>
  <rect fill="#00bf00" stroke="#000" stroke-width="0" stroke-opacity="null" x="160" y="120" width="40" height="40" id="svg_34"/>
  <rect fill="#00bf00" stroke="#000" stroke-width="0" stroke-opacity="null" x="160" y="80" width="40" height="40" id="svg_35"/>
  <rect fill="#00bf00" stroke="#000" stroke-width="0" stroke-opacity="null" x="120" y="280" width="40" height="40" id="svg_61"/>
  <rect fill="#00bf00" stroke="#000" stroke-width="0" stroke-opacity="null" x="120" y="240" width="40" height="40" id="svg_62"/>
  <rect fill="#00bf00" stroke="#000" stroke-width="0" stroke-opacity="null" x="120" y="200" width="40" height="40" id="svg_63"/>
  <rect fill="#00bf00" stroke="#000" stroke-width="0" stroke-opacity="null" x="120" y="160" width="40" height="40" id="svg_64"/>
  <rect fill="#00bf00" stroke="#000" stroke-width="0" stroke-opacity="null" x="120" y="120" width="40" height="40" id="svg_65"/>
  <rect fill="#00bf00" stroke="#000" stroke-width="0" stroke-opacity="null" x="80" y="240" width="40" height="40" id="svg_66"/>
  <rect fill="#00bf00" stroke="#000" stroke-width="0" stroke-opacity="null" x="80" y="200" width="40" height="40" id="svg_67"/>
  <rect fill="#00bf00" stroke="#000" stroke-width="0" stroke-opacity="null" x="80" y="160" width="40" height="40" id="svg_68"/>
  <rect fill="#00bf00" stroke="#000" stroke-width="0" stroke-opacity="null" x="40" y="200" width="40" height="40" id="svg_69"/>
  <rect fill="#00bf00" stroke="#000" stroke-width="0" stroke-opacity="null" x="240" y="360" width="40" height="40" id="svg_70"/>
  <rect fill="#00bf00" stroke="#000" stroke-width="0" stroke-opacity="null" x="240" y="320" width="40" height="40" id="svg_71"/>
  <rect fill="#00bf00" stroke="#000" stroke-width="0" stroke-opacity="null" x="240" y="280" width="40" height="40" id="svg_72"/>
  <rect fill="#00bf00" stroke="#000" stroke-width="0" stroke-opacity="null" x="240" y="240" width="40" height="40" id="svg_73"/>
  <rect fill="#00bf00" stroke="#000" stroke-width="0" stroke-opacity="null" x="240" y="200" width="40" height="40" id="svg_74"/>
  <rect fill="#00bf00" stroke="#000" stroke-width="0" stroke-opacity="null" x="240" y="160" width="40" height="40" id="svg_75"/>
  <rect fill="#00bf00" stroke="#000" stroke-width="0" stroke-opacity="null" x="240" y="120" width="40" height="40" id="svg_76"/>
  <rect fill="#00bf00" stroke="#000" stroke-width="0" stroke-opacity="null" x="240" y="80" width="40" height="40" id="svg_77"/>
  <rect fill="#007f3f" stroke="#000" stroke-width="0" stroke-opacity="null" x="240" width="40" height="20" id="svg_78" y="20"/>
  <rect fill="#007f3f" stroke="#000" stroke-width="0" stroke-opacity="null" x="280" width="40" height="20" id="svg_79" y="20"/>
  <rect fill="#007f3f" stroke="#000" stroke-width="0" stroke-opacity="null" x="320" width="40" height="20" id="svg_80" y="20"/>
  <rect fill="#007f3f" stroke="#000" stroke-width="0" stroke-opacity="null" x="360" width="40" height="20" id="svg_81" y="20"/>
  <rect fill="#007f3f" stroke="#000" stroke-width="0" stroke-opacity="null" x="400" width="40" height="20" id="svg_82" y="20"/>
  <rect fill="#007f3f" stroke="#000" stroke-width="0" stroke-opacity="null" x="440" width="40" height="20" id="svg_83" y="20"/>
  <rect fill="#007f3f" stroke="#000" stroke-width="0" stroke-opacity="null" x="480" width="40" height="40" id="svg_84" y="40"/>
  <rect fill="#007f3f" stroke="#000" stroke-width="0" stroke-opacity="null" x="520" width="40" height="40" id="svg_85" y="80"/>
  <rect fill="#007f3f" stroke="#000" stroke-width="0" stroke-opacity="null" x="560" width="40" height="40" id="svg_86" y="120"/>
  <rect fill="#007f3f" stroke="#000" stroke-width="0" stroke-opacity="null" x="600" width="40" height="40" id="svg_87" y="160"/>
  <rect fill="#007f3f" stroke="#000" stroke-width="0" stroke-opacity="null" x="640" width="40" height="40" id="svg_88" y="200"/>
  <rect fill="#007f3f" stroke="#000" stroke-width="0" stroke-opacity="null" x="600" width="40" height="40" id="svg_89" y="240"/>
  <rect fill="#007f3f" stroke="#000" stroke-width="0" stroke-opacity="null" x="560" width="40" height="40" id="svg_90" y="280"/>
  <rect fill="#007f3f" stroke="#000" stroke-width="0" stroke-opacity="null" x="520" width="40" height="40" id="svg_91" y="320"/>
  <rect fill="#007f3f" stroke="#000" stroke-width="0" stroke-opacity="null" x="480" width="40" height="40" id="svg_92" y="360"/>
  <rect fill="#007f3f" stroke="#000" stroke-width="0" stroke-opacity="null" x="440" width="40" height="20" id="svg_93" y="400"/>
  <rect y="20" fill="#007f3f" stroke="#000" stroke-width="0" stroke-opacity="null" x="240" width="40" height="20" id="svg_94"/>
  <rect y="20" fill="#007f3f" stroke="#000" stroke-width="0" stroke-opacity="null" x="280" width="40" height="20" id="svg_95"/>
  <rect y="20" fill="#007f3f" stroke="#000" stroke-width="0" stroke-opacity="null" x="320" width="40" height="20" id="svg_96"/>
  <rect y="20" fill="#007f3f" stroke="#000" stroke-width="0" stroke-opacity="null" x="360" width="40" height="20" id="svg_97"/>
  <rect y="20" fill="#007f3f" stroke="#000" stroke-width="0" stroke-opacity="null" x="400" width="40" height="20" id="svg_98"/>
  <rect fill="#007f3f" stroke="#000" stroke-width="0" stroke-opacity="null" x="240" width="40" height="20" id="svg_99" y="400"/>
  <rect fill="#007f3f" stroke="#000" stroke-width="0" stroke-opacity="null" x="280" width="40" height="20" id="svg_100" y="400"/>
  <rect fill="#007f3f" stroke="#000" stroke-width="0" stroke-opacity="null" x="320" width="40" height="20" id="svg_101" y="400"/>
  <rect fill="#007f3f" stroke="#000" stroke-width="0" stroke-opacity="null" x="360" width="40" height="20" id="svg_102" y="400"/>
  <rect fill="#007f3f" stroke="#000" stroke-width="0" stroke-opacity="null" x="400" width="40" height="20" id="svg_103" y="400"/>
  <rect fill="#007f3f" stroke="#000" stroke-width="0" stroke-opacity="null" x="240" width="40" height="20" id="svg_104" y="400"/>
  <rect fill="#007f3f" stroke="#000" stroke-width="0" stroke-opacity="null" x="280" width="40" height="20" id="svg_105" y="400"/>
  <rect fill="#007f3f" stroke="#000" stroke-width="0" stroke-opacity="null" x="320" width="40" height="20" id="svg_106" y="400"/>
  <rect fill="#007f3f" stroke="#000" stroke-width="0" stroke-opacity="null" x="360" width="40" height="20" id="svg_107" y="400"/>
  <rect fill="#007f3f" stroke="#000" stroke-width="0" stroke-opacity="null" x="400" width="40" height="20" id="svg_108" y="400"/>
  <rect fill="#00bf00" stroke="#000" stroke-width="0" stroke-opacity="null" x="280" y="360" width="40" height="40" id="svg_109"/>
  <rect fill="#00bf00" stroke="#000" stroke-width="0" stroke-opacity="null" x="280" y="320" width="40" height="40" id="svg_110"/>
  <rect fill="#00bf00" stroke="#000" stroke-width="0" stroke-opacity="null" x="280" y="280" width="40" height="40" id="svg_111"/>
  <rect fill="#00bf00" stroke="#000" stroke-width="0" stroke-opacity="null" x="280" y="240" width="40" height="40" id="svg_112"/>
  <rect fill="#00bf00" stroke="#000" stroke-width="0" stroke-opacity="null" x="280" y="200" width="40" height="40" id="svg_113"/>
  <rect fill="#00bf00" stroke="#000" stroke-width="0" stroke-opacity="null" x="280" y="160" width="40" height="40" id="svg_114"/>
  <rect fill="#00bf00" stroke="#000" stroke-width="0" stroke-opacity="null" x="280" y="120" width="40" height="40" id="svg_115"/>
  <rect fill="#00bf00" stroke="#000" stroke-width="0" stroke-opacity="null" x="280" y="80" width="40" height="40" id="svg_116"/>
  <rect fill="#00bf00" stroke="#000" stroke-width="0" stroke-opacity="null" x="280" y="40" width="40" height="40" id="svg_117"/>
  <rect fill="#00bf00" stroke="#000" stroke-width="0" stroke-opacity="null" x="320" y="40" width="40" height="40" id="svg_118"/>
  <rect fill="#00bf00" stroke="#000" stroke-width="0" stroke-opacity="null" x="320" y="360" width="40" height="40" id="svg_119"/>
  <rect fill="#00bf00" stroke="#000" stroke-width="0" stroke-opacity="null" x="320" y="320" width="40" height="40" id="svg_120"/>
  <rect fill="#00bf00" stroke="#000" stroke-width="0" stroke-opacity="null" x="320" y="280" width="40" height="40" id="svg_121"/>
  <rect fill="#00bf00" stroke="#000" stroke-width="0" stroke-opacity="null" x="320" y="240" width="40" height="40" id="svg_122"/>
  <rect fill="#00bf00" stroke="#000" stroke-width="0" stroke-opacity="null" x="320" y="200" width="40" height="40" id="svg_123"/>
  <rect fill="#00bf00" stroke="#000" stroke-width="0" stroke-opacity="null" x="320" y="160" width="40" height="40" id="svg_124"/>
  <rect fill="#00bf00" stroke="#000" stroke-width="0" stroke-opacity="null" x="320" y="120" width="40" height="40" id="svg_125"/>
  <rect fill="#00bf00" stroke="#000" stroke-width="0" stroke-opacity="null" x="320" y="80" width="40" height="40" id="svg_126"/>
  <rect fill="#00bf00" stroke="#000" stroke-width="0" stroke-opacity="null" x="360" y="40" width="40" height="40" id="svg_127"/>
  <rect fill="#00bf00" stroke="#000" stroke-width="0" stroke-opacity="null" x="360" y="360" width="40" height="40" id="svg_128"/>
  <rect fill="#00bf00" stroke="#000" stroke-width="0" stroke-opacity="null" x="360" y="320" width="40" height="40" id="svg_129"/>
  <rect fill="#00bf00" stroke="#000" stroke-width="0" stroke-opacity="null" x="360" y="280" width="40" height="40" id="svg_130"/>
  <rect fill="#00bf00" stroke="#000" stroke-width="0" stroke-opacity="null" x="360" y="240" width="40" height="40" id="svg_131"/>
  <rect fill="#00bf00" stroke="#000" stroke-width="0" stroke-opacity="null" x="360" y="200" width="40" height="40" id="svg_132"/>
  <rect fill="#00bf00" stroke="#000" stroke-width="0" stroke-opacity="null" x="360" y="160" width="40" height="40" id="svg_133"/>
  <rect fill="#00bf00" stroke="#000" stroke-width="0" stroke-opacity="null" x="360" y="120" width="40" height="40" id="svg_134"/>
  <rect fill="#00bf00" stroke="#000" stroke-width="0" stroke-opacity="null" x="360" y="80" width="40" height="40" id="svg_135"/>
  <rect fill="#00bf00" stroke="#000" stroke-width="0" stroke-opacity="null" x="400" y="360" width="40" height="40" id="svg_136"/>
  <rect fill="#00bf00" stroke="#000" stroke-width="0" stroke-opacity="null" x="400" y="320" width="40" height="40" id="svg_137"/>
  <rect fill="#00bf00" stroke="#000" stroke-width="0" stroke-opacity="null" x="400" y="280" width="40" height="40" id="svg_138"/>
  <rect fill="#00bf00" stroke="#000" stroke-width="0" stroke-opacity="null" x="400" y="240" width="40" height="40" id="svg_139"/>
  <rect fill="#00bf00" stroke="#000" stroke-width="0" stroke-opacity="null" x="400" y="200" width="40" height="40" id="svg_140"/>
  <rect fill="#00bf00" stroke="#000" stroke-width="0" stroke-opacity="null" x="400" y="160" width="40" height="40" id="svg_141"/>
  <rect fill="#00bf00" stroke="#000" stroke-width="0" stroke-opacity="null" x="400" y="120" width="40" height="40" id="svg_142"/>
  <rect fill="#00bf00" stroke="#000" stroke-width="0" stroke-opacity="null" x="400" y="80" width="40" height="40" id="svg_143"/>
  <rect fill="#00bf00" stroke="#000" stroke-width="0" stroke-opacity="null" x="400" y="40" width="40" height="40" id="svg_144"/>
  <rect fill="#00bf00" stroke="#000" stroke-width="0" stroke-opacity="null" x="440" y="40" width="40" height="40" id="svg_145"/>
  <rect fill="#00bf00" stroke="#000" stroke-width="0" stroke-opacity="null" x="440" y="360" width="40" height="40" id="svg_146"/>
  <rect fill="#00bf00" stroke="#000" stroke-width="0" stroke-opacity="null" x="440" y="320" width="40" height="40" id="svg_147"/>
  <rect fill="#00bf00" stroke="#000" stroke-width="0" stroke-opacity="null" x="440" y="280" width="40" height="40" id="svg_148"/>
  <rect fill="#00bf00" stroke="#000" stroke-width="0" stroke-opacity="null" x="440" y="240" width="40" height="40" id="svg_149"/>
  <rect fill="#00bf00" stroke="#000" stroke-width="0" stroke-opacity="null" x="440" y="200" width="40" height="40" id="svg_150"/>
  <rect fill="#00bf00" stroke="#000" stroke-width="0" stroke-opacity="null" x="440" y="160" width="40" height="40" id="svg_151"/>
  <rect fill="#00bf00" stroke="#000" stroke-width="0" stroke-opacity="null" x="440" y="120" width="40" height="40" id="svg_152"/>
  <rect fill="#00bf00" stroke="#000" stroke-width="0" stroke-opacity="null" x="440" y="80" width="40" height="40" id="svg_153"/>
  <rect fill="#00bf00" stroke="#000" stroke-width="0" stroke-opacity="null" x="480" y="320" width="40" height="40" id="svg_154"/>
  <rect fill="#00bf00" stroke="#000" stroke-width="0" stroke-opacity="null" x="480" y="280" width="40" height="40" id="svg_155"/>
  <rect fill="#00bf00" stroke="#000" stroke-width="0" stroke-opacity="null" x="480" y="240" width="40" height="40" id="svg_156"/>
  <rect fill="#00bf00" stroke="#000" stroke-width="0" stroke-opacity="null" x="480" y="200" width="40" height="40" id="svg_157"/>
  <rect fill="#00bf00" stroke="#000" stroke-width="0" stroke-opacity="null" x="480" y="160" width="40" height="40" id="svg_158"/>
  <rect fill="#00bf00" stroke="#000" stroke-width="0" stroke-opacity="null" x="480" y="120" width="40" height="40" id="svg_159"/>
  <rect fill="#00bf00" stroke="#000" stroke-width="0" stroke-opacity="null" x="480" y="80" width="40" height="40" id="svg_160"/>
  <rect fill="#00bf00" stroke="#000" stroke-width="0" stroke-opacity="null" x="520" y="280" width="40" height="40" id="svg_161"/>
  <rect fill="#00bf00" stroke="#000" stroke-width="0" stroke-opacity="null" x="520" y="240" width="40" height="40" id="svg_162"/>
  <rect fill="#00bf00" stroke="#000" stroke-width="0" stroke-opacity="null" x="520" y="200" width="40" height="40" id="svg_163"/>
  <rect fill="#00bf00" stroke="#000" stroke-width="0" stroke-opacity="null" x="520" y="160" width="40" height="40" id="svg_164"/>
  <rect fill="#00bf00" stroke="#000" stroke-width="0" stroke-opacity="null" x="520" y="120" width="40" height="40" id="svg_165"/>
  <rect fill="#00bf00" stroke="#000" stroke-width="0" stroke-opacity="null" x="560" y="240" width="40" height="40" id="svg_166"/>
  <rect fill="#00bf00" stroke="#000" stroke-width="0" stroke-opacity="null" x="560" y="200" width="40" height="40" id="svg_167"/>
  <rect fill="#00bf00" stroke="#000" stroke-width="0" stroke-opacity="null" x="560" y="160" width="40" height="40" id="svg_168"/>
  <rect fill="#00bf00" stroke="#000" stroke-width="0" stroke-opacity="null" x="600" y="200" width="40" height="40" id="svg_169"/>
 </g>
</svg>