<?xml version="1.0" encoding="UTF-8" standalone="no"?>
<svg version="1.1" id="Layer_1" xmlns="http://www.w3.org/2000/svg" xmlns:xlink="http://www.w3.org/1999/xlink" x="0px" y="0px"
	 width="462px" height="336px" viewBox="0 0 462 336" enable-background="new 0 0 462 336" xml:space="preserve">
 <rect id="svg_1" height="42" width="42" fill="#FFFFFF" x="84"/>
  <rect id="svg_2" height="42" width="42" fill="#FFFFFF" y="42" x="126"/>
  <rect id="svg_3" height="42" width="42" fill="#FFFFFF" y="84" x="84"/>
  <rect id="svg_4" height="42" width="42" fill="#FFFFFF" y="126" x="42"/>
  <rect x="0" id="svg_5" height="42" width="42" fill="#FFFFFF" y="252"/>
  <rect x="0" id="svg_6" height="42" width="42" fill="#FFFFFF" y="210"/>
  <rect id="svg_8" height="42" width="42" fill="#FFFFFF" y="168" x="42"/>
  <rect id="svg_9" height="42" width="42" fill="#FFFFFF" y="168"/>
  <rect id="svg_10" height="42" width="42" fill="#FFFFFF" y="210" x="42"/>
  <rect id="svg_11" height="42" width="42" fill="#FFFFFF" y="126" x="84"/>
  <rect id="svg_12" height="42" width="42" fill="#FFFFFF" y="168" x="84"/>
  <rect id="svg_13" height="42" width="42" fill="#FFFFFF" y="210" x="84"/>
  <rect id="svg_14" height="42" width="42" fill="#FFFFFF" y="252" x="84"/>
  <rect id="svg_15" height="42" width="42" fill="#FFFFFF" y="294" x="126"/>
  <rect id="svg_16" height="42" width="42" fill="#FFFFFF" y="84" x="126"/>
  <rect id="svg_17" height="42" width="42" fill="#FFFFFF" y="84" x="168"/>
  <rect id="svg_18" height="42" width="42" fill="#FFFFFF" y="84" x="210"/>
  <rect id="svg_19" height="42" width="42" fill="#FFFFFF" y="84" x="252"/>
  <rect id="svg_20" height="42" width="42" fill="#FFFFFF" y="42" x="294"/>
  <rect id="svg_21" height="42" width="42" fill="#FFFFFF" x="336"/>
  <rect id="svg_22" height="42" width="42" fill="#FFFFFF" y="84" x="294"/>
  <rect id="svg_23" height="42" width="42" fill="#FFFFFF" y="84" x="336"/>
  <rect id="svg_24" height="42" width="42" fill="#FFFFFF" y="210" x="420"/>
  <rect id="svg_25" height="42" width="42" fill="#FFFFFF" y="252" x="420"/>
  <rect id="svg_27" height="42" width="42" fill="#FFFFFF" y="168" x="420"/>
  <rect id="svg_28" height="42" width="42" fill="#FFFFFF" y="126" x="336"/>
  <rect id="svg_29" height="42" width="42" fill="#FFFFFF" y="168" x="336"/>
  <rect id="svg_30" height="42" width="42" fill="#FFFFFF" y="210" x="336"/>
  <rect id="svg_31" height="42" width="42" fill="#FFFFFF" y="126" x="378"/>
  <rect id="svg_32" height="42" width="42" fill="#FFFFFF" y="168" x="378"/>
  <rect id="svg_33" height="42" width="42" fill="#FFFFFF" y="210" x="378"/>
  <rect id="svg_34" height="42" width="42" fill="#FFFFFF" y="252" x="336"/>
  <rect id="svg_35" height="42" width="42" fill="#FFFFFF" y="294" x="294"/>
  <rect id="svg_36" height="42" width="42" fill="#FFFFFF" y="210" x="126"/>
  <rect id="svg_37" height="42" width="42" fill="#FFFFFF" y="210" x="168"/>
  <rect id="svg_38" height="42" width="42" fill="#FFFFFF" y="210" x="210"/>
  <rect id="svg_39" height="42" width="42" fill="#FFFFFF" y="210" x="252"/>
  <rect id="svg_40" height="42" width="42" fill="#FFFFFF" y="210" x="294"/>
  <rect id="svg_41" height="42" width="42" fill="#FFFFFF" y="168" x="126"/>
  <rect id="svg_42" height="42" width="42" fill="#FFFFFF" y="168" x="168"/>
  <rect id="svg_43" height="42" width="42" fill="#FFFFFF" y="168" x="210"/>
  <rect id="svg_44" height="42" width="42" fill="#FFFFFF" y="168" x="252"/>
  <rect id="svg_45" height="42" width="42" fill="#FFFFFF" y="168" x="294"/>
  <rect id="svg_46" height="42" width="42" fill="#FFFFFF" y="126" x="168"/>
  <rect id="svg_47" height="42" width="42" fill="#FFFFFF" y="126" x="210"/>
  <rect id="svg_48" height="42" width="42" fill="#FFFFFF" y="126" x="252"/>
  <rect id="svg_49" height="42" width="42" fill="#FFFFFF" y="294" x="168"/>
  <rect id="svg_50" height="42" width="42" fill="#FFFFFF" y="294" x="252"/>
</svg>