<svg xmlns="http://www.w3.org/2000/svg" width="462px" height="336px">
  <rect x="84" fill="#FFFFFF" width="42" height="42"/>
  <rect x="126" y="42" fill="#FFFFFF" width="42" height="42"/>
  <rect x="84" y="84" fill="#FFFFFF" width="42" height="42"/>
  <rect x="42" y="126" fill="#FFFFFF" width="42" height="42"/>
  <rect y="84" fill="#FFFFFF" width="42" height="42"/>
  <rect y="42" fill="#FFFFFF" width="42" height="42"/>
  <rect y="126" fill="#FFFFFF" width="42" height="42"/>
  <rect x="42" y="168" fill="#FFFFFF" width="42" height="42"/>
  <rect y="168" fill="#FFFFFF" width="42" height="42"/>
  <rect x="42" y="210" fill="#FFFFFF" width="42" height="42"/>
  <rect x="84" y="126" fill="#FFFFFF" width="42" height="42"/>
  <rect x="84" y="168" fill="#FFFFFF" width="42" height="42"/>
  <rect x="84" y="210" fill="#FFFFFF" width="42" height="42"/>
  <rect x="84" y="252" fill="#FFFFFF" width="42" height="42"/>
  <rect x="42" y="294" fill="#FFFFFF" width="42" height="42"/>
  <rect x="126" y="84" fill="#FFFFFF" width="42" height="42"/>
  <rect x="168" y="84" fill="#FFFFFF" width="42" height="42"/>
  <rect x="210" y="84" fill="#FFFFFF" width="42" height="42"/>
  <rect x="252" y="84" fill="#FFFFFF" width="42" height="42"/>
  <rect x="294" y="42" fill="#FFFFFF" width="42" height="42"/>
  <rect x="336" fill="#FFFFFF" width="42" height="42"/>
  <rect x="294" y="84" fill="#FFFFFF" width="42" height="42"/>
  <rect x="336" y="84" fill="#FFFFFF" width="42" height="42"/>
  <rect x="420" y="84" fill="#FFFFFF" width="42" height="42"/>
  <rect x="420" y="42" fill="#FFFFFF" width="42" height="42"/>
  <rect x="420" y="126" fill="#FFFFFF" width="42" height="42"/>
  <rect x="420" y="168" fill="#FFFFFF" width="42" height="42"/>
  <rect x="336" y="126" fill="#FFFFFF" width="42" height="42"/>
  <rect x="336" y="168" fill="#FFFFFF" width="42" height="42"/>
  <rect x="336" y="210" fill="#FFFFFF" width="42" height="42"/>
  <rect x="378" y="126" fill="#FFFFFF" width="42" height="42"/>
  <rect x="378" y="168" fill="#FFFFFF" width="42" height="42"/>
  <rect x="378" y="210" fill="#FFFFFF" width="42" height="42"/>
  <rect x="336" y="252" fill="#FFFFFF" width="42" height="42"/>
  <rect x="378" y="294" fill="#FFFFFF" width="42" height="42"/>
  <rect x="126" y="210" fill="#FFFFFF" width="42" height="42"/>
  <rect x="168" y="210" fill="#FFFFFF" width="42" height="42"/>
  <rect x="210" y="210" fill="#FFFFFF" width="42" height="42"/>
  <rect x="252" y="210" fill="#FFFFFF" width="42" height="42"/>
  <rect x="294" y="210" fill="#FFFFFF" width="42" height="42"/>
  <rect x="126" y="168" fill="#FFFFFF" width="42" height="42"/>
  <rect x="168" y="168" fill="#FFFFFF" width="42" height="42"/>
  <rect x="210" y="168" fill="#FFFFFF" width="42" height="42"/>
  <rect x="252" y="168" fill="#FFFFFF" width="42" height="42"/>
  <rect x="294" y="168" fill="#FFFFFF" width="42" height="42"/>
  <rect x="168" y="126" fill="#FFFFFF" width="42" height="42"/>
  <rect x="210" y="126" fill="#FFFFFF" width="42" height="42"/>
  <rect x="252" y="126" fill="#FFFFFF" width="42" height="42"/>
</svg>